<?xml version="1.0" encoding="UTF-8" standalone="no"?>
<svg
   width="1000"
   height="240"
   viewBox="0 0 1000 240"
   role="img"
   aria-labelledby="title desc"
   version="1.1"
   id="svg18"
   xmlns="http://www.w3.org/2000/svg"
   xmlns:svg="http://www.w3.org/2000/svg">
  <title
     id="title">Ongedierte Buddy</title>
  <desc
     id="desc">Ongedierte Buddy logo met een oranje schild en kever op een donkergroene achtergrond.</desc>
  <defs
     id="defs5">
    <linearGradient
       id="brandGradient"
       x1="0"
       y1="0"
       x2="1"
       y2="1">
      <stop
         offset="0"
         stop-color="#0B6A56"
         id="stop1" />
      <stop
         offset="0.52"
         stop-color="#073E32"
         id="stop2" />
      <stop
         offset="1"
         stop-color="#052E27"
         id="stop3" />
    </linearGradient>
    <linearGradient
       id="orangeGradient"
       x1="0"
       y1="0"
       x2="0"
       y2="1">
      <stop
         offset="0"
         stop-color="#FFA21A"
         id="stop4" />
      <stop
         offset="1"
         stop-color="#FF8A00"
         id="stop5" />
    </linearGradient>
  </defs>
  <g
     transform="translate(18 18) scale(.438)"
     id="g17">
    <g
       id="brand-mark">
      <rect
         x="16"
         y="16"
         width="480"
         height="480"
         rx="112"
         fill="url(#brandGradient)"
         id="rect5" />
      <path
         d="M256 100 369 152v102c0 79-45 136-113 174-68-38-113-95-113-174V152L256 100Z"
         fill="none"
         stroke="url(#orangeGradient)"
         stroke-width="22"
         stroke-linejoin="round"
         id="path5" />
      <g
         fill="none"
         stroke="#FF9410"
         stroke-width="15"
         stroke-linecap="round"
         stroke-linejoin="round"
         id="g16">
        <path
           d="M228 205c7-16 20-25 28-25s21 9 28 25"
           id="path6" />
        <path
           d="M229 181c-5-10-13-16-24-17"
           id="path7" />
        <path
           d="M283 181c5-10 13-16 24-17"
           id="path8" />
        <path
           d="M256 207c-31 0-50 23-50 57v32c0 39 21 66 50 66s50-27 50-66v-32c0-34-19-57-50-57Z"
           id="path9" />
        <path
           d="M256 213v143"
           id="path10" />
        <path
           d="M208 246l-22-17"
           id="path11" />
        <path
           d="M207 276l-28 2"
           id="path12" />
        <path
           d="M210 307l-21 23"
           id="path13" />
        <path
           d="M304 246l22-17"
           id="path14" />
        <path
           d="M305 276l28 2"
           id="path15" />
        <path
           d="M302 307l21 23"
           id="path16" />
      </g>
    </g>
  </g>
  <g
     font-family="Inter, 'Inter Display', Arial, sans-serif"
     id="g18">
    <path
       d="m 316.99219,117.03516 c 20.65136,0 36.64453,-14.12989 36.64453,-39.542973 0,-25.464843 -15.99317,-39.646484 -36.64453,-39.646484 -20.75489,0 -36.74805,14.181641 -36.74805,39.646484 0,25.309573 15.99316,39.542973 36.74805,39.542973 z m 0,-16.04493 c -11.23145,0 -18.06348,-8.281246 -18.06348,-23.498043 0,-15.268554 6.83203,-23.601562 18.06348,-23.601562 11.17968,0 18.01172,8.28125 18.01172,23.601562 0,15.216797 -6.83204,23.498043 -18.01172,23.498043 z m 60.75606,-18.011714 c 0,-6.728516 3.98535,-10.713868 9.88574,-10.713868 5.90039,0 9.41992,3.881836 9.41992,10.403321 V 116 h 18.06348 V 79.148437 c 0,-13.094726 -7.91895,-21.738281 -20.03028,-21.738281 -9.36816,0 -15.06152,5.175781 -18.11523,13.198242 L 376.66133,58.134766 H 359.68477 V 116 h 18.06348 z m 71.72871,55.898434 c 17.28711,0 29.19141,-8.17773 29.19141,-24.1709 V 58.134766 h -17.85645 v 9.9375 h -0.51758 c -2.17383,-5.227539 -7.40137,-10.66211 -16.5625,-10.66211 -12.16308,0 -23.13574,9.419922 -23.13574,29.657227 0,19.512697 10.50684,28.156247 23.1875,28.156247 8.5918,0 13.56055,-4.08886 15.68262,-9.3164 h 1.39746 v 10.24804 c 0,6.88379 -4.14063,10.14453 -11.49024,10.14453 -6.46972,0 -10.04101,-2.63964 -11.07617,-5.79687 l -15.68262,3.20898 c 2.12207,9.05762 11.74903,15.16504 26.86231,15.16504 z m 0.46582,-36.90332 c -6.93555,0 -10.76563,-5.641599 -10.76563,-14.958005 0,-9.316406 3.83008,-15.475586 10.76563,-15.475586 6.93555,0 10.9209,6.003906 10.9209,15.475586 0,9.368164 -3.98535,14.958005 -10.9209,14.958005 z m 63.39569,15.11328 c 14.02637,0 23.49805,-6.36621 26.39648,-16.40722 l -16.09667,-2.639651 c -1.44922,3.881841 -5.12403,5.952151 -9.98926,5.952151 -6.83203,0 -11.43848,-4.140628 -11.74903,-12.525393 h 38.66309 v -4.554688 c 0,-19.098632 -11.64551,-29.501953 -27.89746,-29.501953 -17.39063,0 -28.51856,12.007813 -28.51856,29.864258 0,18.529296 11.02442,29.812496 29.19141,29.812496 z M 502.00351,80.959961 c 0.67285,-6.366211 4.45117,-10.455078 10.81738,-10.455078 6.31446,0 9.88574,3.881836 10.61035,10.455078 z m 64.79318,35.868169 c 8.79883,0 13.97461,-4.96875 16.25196,-10.19629 h 0.62109 V 116 h 17.80469 V 38.880859 h -18.01172 v 29.191407 h -0.41406 c -2.17383,-5.227539 -7.14258,-10.66211 -16.40723,-10.66211 -12.16309,0 -23.03223,9.419922 -23.03223,29.708985 0,19.616209 10.29981,29.708989 23.1875,29.708989 z M 572.95587,102.75 c -6.9873,0 -10.76562,-6.210938 -10.76562,-15.630859 0,-9.419922 3.77832,-15.579102 10.76562,-15.579102 6.88379,0 10.9209,6.003906 10.9209,15.579102 0,9.471679 -4.08887,15.630859 -10.9209,15.630859 z m 36.2746,13.25 h 18.06348 V 58.134766 h -18.06348 z m 9.00586,-64.645508 c 5.17578,0 9.36816,-3.881836 9.36816,-8.695312 0,-4.813477 -4.19238,-8.695313 -9.36816,-8.695313 -5.12403,0 -9.31641,3.881836 -9.31641,8.695313 0,4.813476 4.19238,8.695312 9.31641,8.695312 z m 43.77948,65.732418 c 14.02637,0 23.49804,-6.36621 26.39648,-16.40722 l -16.09668,-2.639651 c -1.44922,3.881841 -5.12402,5.952151 -9.98926,5.952151 -6.83203,0 -11.43847,-4.140628 -11.74902,-12.525393 h 38.66309 v -4.554688 c 0,-19.098632 -11.64551,-29.501953 -27.89746,-29.501953 -17.39063,0 -28.51856,12.007813 -28.51856,29.864258 0,18.529296 11.02442,29.812496 29.19141,29.812496 z M 650.68085,80.959961 c 0.67285,-6.366211 4.45117,-10.455078 10.81738,-10.455078 6.31445,0 9.88574,3.881836 10.61035,10.455078 z M 694.51212,116 h 18.06347 V 84.427734 c 0,-6.935547 4.91699,-11.59375 11.59375,-11.59375 2.17383,0 5.43457,0.362305 7.14258,0.931641 V 58.03125 c -1.50098,-0.362305 -3.41602,-0.621094 -5.12402,-0.621094 -6.36621,0 -11.43848,3.674805 -13.50879,11.283203 h -0.6211 V 58.134766 H 694.51212 Z M 768.25937,58.134766 H 757.85605 V 44.367187 h -18.06348 v 13.767579 h -7.66015 v 13.405273 h 7.66015 V 99.90332 c 0,11.02441 6.46973,16.92481 18.73633,16.92481 3.41602,0 7.24609,-0.36231 11.2832,-1.50098 l -2.3291,-13.14649 c -0.9834,0.25879 -3.77832,0.6211 -5.02051,0.6211 -3.26074,0 -4.60644,-1.44922 -4.60644,-4.502932 V 71.540039 h 10.40332 z m 30.99533,58.952144 c 14.02637,0 23.49805,-6.36621 26.39648,-16.40722 L 809.5545,98.040039 c -1.44921,3.881841 -5.12402,5.952151 -9.98925,5.952151 -6.83203,0 -11.43848,-4.140628 -11.74903,-12.525393 h 38.66309 v -4.554688 c 0,-19.098632 -11.64551,-29.501953 -27.89746,-29.501953 -17.39063,0 -28.51856,12.007813 -28.51856,29.864258 0,18.529296 11.02442,29.812496 29.19141,29.812496 z M 787.91974,80.959961 c 0.67285,-6.366211 4.45117,-10.455078 10.81738,-10.455078 6.31445,0 9.88574,3.881836 10.61035,10.455078 z"
       id="text17"
       style="font-weight:800;font-size:106px;letter-spacing:-4.2;fill:#052e27"
       aria-label="Ongedierte" />
    <path
       d="m 286.12305,209 h 21.26367 c 12.83984,0 18.66601,-6.41992 18.66601,-14.91797 0,-8.49805 -5.97461,-13.32226 -11.5039,-13.61914 v -0.55664 c 5.12109,-1.26172 9.35156,-4.78711 9.35156,-11.68945 0,-8.16407 -5.67773,-14.50977 -17.4043,-14.50977 h -20.37304 z m 8.46093,-7.27344 v -17.55273 h 12.28321 c 6.60547,0 10.79883,4.26758 10.79883,9.5 0,4.60156 -3.19141,8.05273 -11.13282,8.05273 z m 0,-24.08398 v -16.69922 h 11.31836 c 6.56836,0 9.68555,3.45117 9.68555,7.97851 0,5.30665 -4.30469,8.72071 -9.9082,8.72071 z m 52.95899,31.87695 c 5.71484,0 10.16797,-2.56055 12.76562,-8.57226 L 360.3457,209 h 7.83008 v -41.48828 h -8.20117 v 24.5664 c 0,6.56836 -4.11914,10.31641 -9.64844,10.31641 -5.41797,0 -8.75781,-3.5625 -8.75781,-9.53711 v -25.3457 h -8.16406 v 26.34765 c 0,10.24219 5.67773,15.66016 14.13867,15.66016 z m 45.01758,0.29688 c 7.49609,0 10.50195,-4.67579 11.94922,-7.31055 h 0.66796 V 209 h 7.94141 v -55.29297 h -8.16406 v 20.55859 h -0.44531 c -1.41016,-2.56054 -4.23047,-7.27343 -11.94922,-7.27343 -9.98243,0 -17.36719,7.86718 -17.36719,21.375 0,13.39648 7.27344,21.44922 17.36719,21.44922 z m 1.78125,-6.93946 c -7.08789,0 -10.79883,-6.3457 -10.79883,-14.58398 0,-8.16406 3.59961,-14.36133 10.79883,-14.36133 7.01367,0 10.76172,5.75195 10.76172,14.36133 0,8.64648 -3.82227,14.58398 -10.76172,14.58398 z m 43.19922,6.93946 c 7.49609,0 10.50195,-4.67579 11.94921,-7.31055 h 0.66797 V 209 h 7.94141 v -55.29297 h -8.16406 v 20.55859 h -0.44532 c -1.41015,-2.56054 -4.23046,-7.27343 -11.94921,-7.27343 -9.98243,0 -17.36719,7.86718 -17.36719,21.375 0,13.39648 7.27344,21.44922 17.36719,21.44922 z m 1.78125,-6.93946 c -7.0879,0 -10.79883,-6.3457 -10.79883,-14.58398 0,-8.16406 3.59961,-14.36133 10.79883,-14.36133 7.01367,0 10.76171,5.75195 10.76171,14.36133 0,8.64648 -3.82226,14.58398 -10.76171,14.58398 z m 27.7246,21.04102 c 1.00196,0.44531 3.1543,0.89062 5.71485,0.89062 6.67969,0 10.79883,-3.41406 13.32226,-10.05664 l 18.03516,-47.24023 h -8.75781 l -8.34961,23.56445 c -1.29883,3.59961 -2.22656,7.19922 -3.1543,10.76172 -0.89062,-3.5625 -1.74414,-7.125 -3.00586,-10.76172 l -8.20117,-23.56445 h -8.83203 l 15.77148,41.67383 -0.89062,3.04297 c -1.52149,5.34375 -4.49024,6.38281 -8.7207,5.26953 l -0.92774,-0.22266 z"
       id="text18"
       style="font-weight:500;font-size:76px;letter-spacing:-2;fill:#66766f"
       aria-label="Buddy" />
  </g>
</svg>
