<?xml version="1.0" encoding="UTF-8" standalone="no"?>
<svg
   width="1540"
   height="400"
   viewBox="0 0 1540 400"
   role="img"
   aria-labelledby="title desc"
   version="1.1"
   id="svg18"
   xmlns="http://www.w3.org/2000/svg"
   xmlns:svg="http://www.w3.org/2000/svg">
  <title
     id="title">Ongedierte Buddy</title>
  <desc
     id="desc">Ongedierte Buddy logo met een oranje schild en kever op een donkergroene achtergrond.</desc>
  <defs
     id="defs5">
    <linearGradient
       id="brandGradient"
       x1="0"
       y1="0"
       x2="1"
       y2="1">
      <stop
         offset="0"
         stop-color="#0B6A56"
         id="stop1" />
      <stop
         offset="0.52"
         stop-color="#073E32"
         id="stop2" />
      <stop
         offset="1"
         stop-color="#052E27"
         id="stop3" />
    </linearGradient>
    <linearGradient
       id="orangeGradient"
       x1="0"
       y1="0"
       x2="0"
       y2="1">
      <stop
         offset="0"
         stop-color="#FFA21A"
         id="stop4" />
      <stop
         offset="1"
         stop-color="#FF8A00"
         id="stop5" />
    </linearGradient>
  </defs>
  <g
     transform="translate(30 30) scale(.664)"
     id="g17">
    <g
       id="brand-mark">
      <rect
         x="16"
         y="16"
         width="480"
         height="480"
         rx="112"
         fill="#073E32"
         id="rect5" />
      <path
         d="M256 100 369 152v102c0 79-45 136-113 174-68-38-113-95-113-174V152L256 100Z"
         fill="none"
         stroke="#073E32"
         stroke-width="22"
         stroke-linejoin="round"
         id="path5" />
      <g
         fill="none"
         stroke="#073E32"
         stroke-width="15"
         stroke-linecap="round"
         stroke-linejoin="round"
         id="g16">
        <path
           d="M228 205c7-16 20-25 28-25s21 9 28 25"
           id="path6" />
        <path
           d="M229 181c-5-10-13-16-24-17"
           id="path7" />
        <path
           d="M283 181c5-10 13-16 24-17"
           id="path8" />
        <path
           d="M256 207c-31 0-50 23-50 57v32c0 39 21 66 50 66s50-27 50-66v-32c0-34-19-57-50-57Z"
           id="path9" />
        <path
           d="M256 213v143"
           id="path10" />
        <path
           d="M208 246l-22-17"
           id="path11" />
        <path
           d="M207 276l-28 2"
           id="path12" />
        <path
           d="M210 307l-21 23"
           id="path13" />
        <path
           d="M304 246l22-17"
           id="path14" />
        <path
           d="M305 276l28 2"
           id="path15" />
        <path
           d="M302 307l21 23"
           id="path16" />
      </g>
    </g>
  </g>
  <g
     font-family="Inter, 'Inter Display', Arial, sans-serif"
     id="g18">
    <path
       d="m 501.875,185.5625 c 31.17187,0 55.3125,-21.32813 55.3125,-59.6875 0,-38.4375 -24.14063,-59.84375 -55.3125,-59.84375 -31.32813,0 -55.46875,21.40625 -55.46875,59.84375 0,38.20312 24.14062,59.6875 55.46875,59.6875 z m 0,-24.21875 c -16.95313,0 -27.26563,-12.5 -27.26563,-35.46875 0,-23.04687 10.3125,-35.625 27.26563,-35.625 16.875,0 27.1875,12.5 27.1875,35.625 0,22.96875 -10.3125,35.46875 -27.1875,35.46875 z m 92.04687,-27.1875 c 0,-10.15625 6.01563,-16.17187 14.92188,-16.17187 8.90625,0 14.21875,5.85937 14.21875,15.70312 V 184 h 27.26562 v -55.625 c 0,-19.76562 -11.95312,-32.8125 -30.23437,-32.8125 -14.14063,0 -22.73438,7.8125 -27.34375,19.92188 l -0.46875,-18.82813 h -25.625 V 184 h 27.26562 z m 108.60938,84.375 c 26.09375,0 44.0625,-12.34375 44.0625,-36.48438 V 96.65625 h -26.95313 v 15 h -0.78125 c -3.28125,-7.89062 -11.17187,-16.09375 -25,-16.09375 -18.35937,0 -34.92187,14.21875 -34.92187,44.76562 0,29.45313 15.85937,42.5 35,42.5 12.96875,0 20.46875,-6.17187 23.67187,-14.0625 h 2.10938 v 15.46875 c 0,10.39063 -6.25,15.3125 -17.34375,15.3125 -9.76563,0 -15.15625,-3.98437 -16.71875,-8.75 l -23.67188,4.84375 c 3.20313,13.67188 17.73438,22.89063 40.54688,22.89063 z m 0.70312,-55.70313 c -10.46875,0 -16.25,-8.51562 -16.25,-22.57812 0,-14.0625 5.78125,-23.35937 16.25,-23.35937 10.46875,0 16.48438,9.0625 16.48438,23.35937 0,14.14062 -6.01563,22.57812 -16.48438,22.57812 z m 96.03125,22.8125 c 21.17188,0 35.46875,-9.60937 39.84375,-24.76562 l -24.29687,-3.98438 c -2.1875,5.85938 -7.73438,8.98438 -15.07813,8.98438 -10.3125,0 -17.26562,-6.25 -17.73437,-18.90625 h 58.35937 v -6.875 c 0,-28.82812 -17.57812,-44.53125 -42.10937,-44.53125 -26.25,0 -43.04688,18.125 -43.04688,45.07812 0,27.96875 16.64063,45 44.0625,45 z m -17.10937,-54.53125 c 1.01562,-9.60937 6.71875,-15.78124 16.32812,-15.78124 9.53125,0 14.92188,5.85937 16.01563,15.78124 z M 880.29687,185.25 c 13.28125,0 21.09375,-7.5 24.53125,-15.39063 h 0.9375 V 184 h 26.875 V 67.59375 h -27.1875 v 44.0625 h -0.625 C 901.54687,103.76563 894.04687,95.5625 880.0625,95.5625 c -18.35938,0 -34.76563,14.21875 -34.76563,44.84375 0,29.60937 15.54688,44.84375 35,44.84375 z M 889.59375,164 c -10.54688,0 -16.25,-9.375 -16.25,-23.59375 0,-14.21875 5.70312,-23.51562 16.25,-23.51562 10.39062,0 16.48437,9.0625 16.48437,23.51562 0,14.29687 -6.17187,23.59375 -16.48437,23.59375 z m 55.09375,20 h 27.26562 V 96.65625 H 944.6875 Z m 13.59375,-97.578125 c 7.8125,0 14.14062,-5.859375 14.14062,-13.125 0,-7.265625 -6.32812,-13.125 -14.14062,-13.125 -7.73438,0 -14.0625,5.859375 -14.0625,13.125 0,7.265625 6.32812,13.125 14.0625,13.125 z m 66.42185,99.218745 c 21.1719,0 35.4688,-9.60937 39.8438,-24.76562 l -24.2969,-3.98438 c -2.1875,5.85938 -7.7344,8.98438 -15.0781,8.98438 -10.3125,0 -17.2657,-6.25 -17.7344,-18.90625 h 58.3594 v -6.875 c 0,-28.82812 -17.5781,-44.53125 -42.1094,-44.53125 -26.25,0 -43.04688,18.125 -43.04688,45.07812 0,27.96875 16.64063,45 44.06248,45 z m -17.1094,-54.53125 c 1.0157,-9.60937 6.7188,-15.78124 16.3282,-15.78124 9.5312,0 14.9219,5.85937 16.0156,15.78124 z M 1074.0938,184 h 27.2656 v -47.65625 c 0,-10.46875 7.4219,-17.5 17.5,-17.5 3.2812,0 8.2031,0.54688 10.7812,1.40625 V 96.5 c -2.2656,-0.546875 -5.1562,-0.9375 -7.7343,-0.9375 -9.6094,0 -17.2657,5.54688 -20.3907,17.03125 h -0.9375 v -15.9375 h -26.4843 z M 1185.75,96.65625 h -15.7031 V 75.875 h -27.2656 v 20.78125 h -11.5625 v 20.23438 h 11.5625 v 42.81249 c 0,16.64063 9.7656,25.54688 28.2812,25.54688 5.1563,0 10.9375,-0.54688 17.0313,-2.26563 l -3.5157,-19.84375 c -1.4843,0.39063 -5.7031,0.9375 -7.5781,0.9375 -4.9219,0 -6.9531,-2.1875 -6.9531,-6.79687 v -40.39062 h 15.7031 z m 47.125,88.98437 c 21.1719,0 35.4688,-9.60937 39.8438,-24.76562 l -24.2969,-3.98438 c -2.1875,5.85938 -7.7344,8.98438 -15.0781,8.98438 -10.3125,0 -17.2657,-6.25 -17.7344,-18.90625 h 58.3594 v -6.875 c 0,-28.82812 -17.5782,-44.53125 -42.1094,-44.53125 -26.25,0 -43.0469,18.125 -43.0469,45.07812 0,27.96875 16.6406,45 44.0625,45 z m -17.1094,-54.53125 c 1.0157,-9.60937 6.7188,-15.78124 16.3282,-15.78124 9.5312,0 14.9218,5.85937 16.0156,15.78124 z"
       id="text17"
       style="font-weight:800;font-size:160px;letter-spacing:-6;fill:#073e32"
       aria-label="Ongedierte" />
    <path
       d="m 454.02344,323 h 31.33593 c 18.92188,0 27.50782,-9.46094 27.50782,-21.98438 0,-12.52343 -8.80469,-19.63281 -16.95313,-20.07031 V 280.125 c 7.54688,-1.85938 13.78125,-7.05469 13.78125,-17.22656 0,-12.03125 -8.36719,-21.38282 -25.64844,-21.38282 h -30.02343 z m 12.46875,-10.71875 v -25.86719 h 18.10156 c 9.73437,0 15.91406,6.28906 15.91406,14 0,6.78125 -4.70312,11.86719 -16.40625,11.86719 z m 0,-35.49219 v -24.60937 h 16.67968 c 9.67969,0 14.27344,5.08593 14.27344,11.75781 0,7.82031 -6.34375,12.85156 -14.60156,12.85156 z m 77.99218,46.97656 c 8.42188,0 14.98438,-3.77343 18.8125,-12.63281 L 563.35156,323 h 11.53906 v -61.14063 h -12.08593 v 36.20313 c 0,9.67969 -6.07032,15.20312 -14.21875,15.20312 -7.98438,0 -12.90625,-5.25 -12.90625,-14.05468 v -37.35157 h -12.03125 v 38.82813 c 0,15.09375 8.36718,23.07812 20.83593,23.07812 z m 66.28907,0.4375 c 11.04687,0 15.47656,-6.89062 17.60937,-10.77343 h 0.98438 V 323 h 11.70312 v -81.48438 h -12.03125 v 30.29688 h -0.65625 c -2.07812,-3.77344 -6.23437,-10.71875 -17.60937,-10.71875 -14.71094,0 -25.59375,11.59375 -25.59375,31.5 0,19.74219 10.71875,31.60937 25.59375,31.60937 z m 2.625,-10.22656 c -10.44532,0 -15.91407,-9.35156 -15.91407,-21.49219 0,-12.03125 5.30469,-21.16406 15.91407,-21.16406 10.33593,0 15.85937,8.47656 15.85937,21.16406 0,12.74219 -5.63281,21.49219 -15.85937,21.49219 z m 63.60937,10.22656 c 11.04688,0 15.47656,-6.89062 17.60938,-10.77343 h 0.98437 V 323 h 11.70313 v -81.48438 h -12.03125 v 30.29688 h -0.65625 c -2.07813,-3.77344 -6.23438,-10.71875 -17.60938,-10.71875 -14.71094,0 -25.59375,11.59375 -25.59375,31.5 0,19.74219 10.71875,31.60937 25.59375,31.60937 z m 2.625,-10.22656 c -10.44531,0 -15.91406,-9.35156 -15.91406,-21.49219 0,-12.03125 5.30469,-21.16406 15.91406,-21.16406 10.33594,0 15.85938,8.47656 15.85938,21.16406 0,12.74219 -5.63282,21.49219 -15.85938,21.49219 z m 40.80469,31.00781 c 1.47656,0.65625 4.64844,1.3125 8.42187,1.3125 9.84375,0 15.91407,-5.03125 19.63282,-14.82031 l 26.57812,-69.61719 h -12.90625 l -12.30469,34.72657 c -1.91406,5.30468 -3.28125,10.60937 -4.64843,15.85937 -1.3125,-5.25 -2.57032,-10.5 -4.42969,-15.85937 l -12.08594,-34.72657 h -13.01562 l 23.24218,61.41407 -1.3125,4.48437 c -2.24218,7.875 -6.61718,9.40625 -12.85156,7.76563 l -1.36719,-0.32813 z"
       id="text18"
       style="font-weight:500;font-size:112px;letter-spacing:-3;fill:#073e32"
       aria-label="Buddy" />
  </g>
</svg>
