<?xml version="1.0" encoding="UTF-8" standalone="no"?>
<svg
   width="1060"
   height="310"
   viewBox="0 0 1060 310"
   role="img"
   aria-labelledby="title desc"
   version="1.1"
   id="svg2"
   xmlns="http://www.w3.org/2000/svg"
   xmlns:svg="http://www.w3.org/2000/svg">
  <defs
     id="defs2" />
  <title
     id="title">Ongedierte Buddy</title>
  <desc
     id="desc">Ongedierte Buddy logo met een oranje schild en kever op een donkergroene achtergrond.</desc>
  <g
     font-family="Inter, 'Inter Display', Arial, sans-serif"
     id="g2">
    <path
       d="m 78.007812,151.46484 c 29.223638,0 51.855468,-19.99511 51.855468,-55.957028 0,-36.035156 -22.63183,-56.103515 -51.855468,-56.103515 -29.370117,0 -52.001953,20.068359 -52.001953,56.103515 0,35.815428 22.631836,55.957028 52.001953,55.957028 z m 0,-22.70507 c -15.893554,0 -25.561523,-11.71875 -25.561523,-33.251958 0,-21.606445 9.667969,-33.398437 25.561523,-33.398437 15.820313,0 25.488278,11.71875 25.488278,33.398437 0,21.533208 -9.667965,33.251958 -25.488278,33.251958 z m 86.118938,-25.48829 c 0,-9.52148 5.63965,-15.161128 13.98926,-15.161128 8.34961,0 13.33008,5.493164 13.33008,14.721678 V 150 h 25.56152 V 97.851562 c 0,-18.530273 -11.20605,-30.761718 -28.34472,-30.761718 -13.25684,0 -21.31348,7.324218 -25.63477,18.676758 L 162.58867,68.115234 H 138.56523 V 150 h 25.56152 z m 101.64629,79.10157 c 24.46289,0 41.30859,-11.57227 41.30859,-34.2041 V 68.115234 h -25.26855 v 14.0625 h -0.73242 c -3.07617,-7.397461 -10.47363,-15.08789 -23.4375,-15.08789 -17.21192,0 -32.73926,13.330078 -32.73926,41.967776 0,27.6123 14.86816,39.84375 32.8125,39.84375 12.1582,0 19.18945,-5.78614 22.19238,-13.1836 h 1.97754 v 14.50196 c 0,9.74121 -5.85937,14.35547 -16.25976,14.35547 -9.15528,0 -14.20899,-3.73536 -15.67383,-8.20313 l -22.19238,4.54102 c 3.00293,12.81738 16.62597,21.45996 38.01269,21.45996 z m 0.65918,-52.22168 c -9.81445,0 -15.23437,-7.9834 -15.23437,-21.16699 0,-13.183599 5.41992,-21.899419 15.23437,-21.899419 9.81445,0 15.4541,8.496094 15.4541,21.899419 0,13.25683 -5.63965,21.16699 -15.4541,21.16699 z m 89.85431,21.38672 c 19.84863,0 33.25195,-9.00879 37.35352,-23.21778 l -22.77833,-3.73535 c -2.05078,5.49316 -7.25097,8.42285 -14.13574,8.42285 -9.66797,0 -16.18652,-5.85937 -16.62597,-17.72461 h 54.71191 v -6.44531 c 0,-27.026367 -16.47949,-41.748046 -39.47754,-41.748046 -24.60937,0 -40.35644,16.992187 -40.35644,42.260746 0,26.2207 15.60058,42.1875 41.30859,42.1875 z m -16.04004,-51.12305 c 0.95215,-9.00879 6.29883,-14.794923 15.30762,-14.794923 8.93554,0 13.98926,5.493164 15.01465,14.794923 z m 91.83182,50.75683 c 12.45117,0 19.77539,-7.03125 22.99804,-14.42871 h 0.87891 V 150 h 25.19531 V 40.869141 h -25.48828 v 41.308593 h -0.58594 c -3.07617,-7.397461 -10.10742,-15.08789 -23.21777,-15.08789 -17.21191,0 -32.59277,13.330078 -32.59277,42.041016 0,27.75879 14.57519,42.04101 32.8125,42.04101 z M 440.79413,131.25 c -9.8877,0 -15.23438,-8.78906 -15.23438,-22.11914 0,-13.330079 5.34668,-22.045899 15.23438,-22.045899 9.74121,0 15.4541,8.496094 15.4541,22.045899 0,13.40332 -5.78613,22.11914 -15.4541,22.11914 z m 51.4754,18.75 h 25.56152 V 68.115234 h -25.56152 z m 12.74414,-91.479492 c 7.32422,0 13.25684,-5.493164 13.25684,-12.304688 0,-6.811523 -5.93262,-12.304687 -13.25684,-12.304687 -7.25097,0 -13.18359,5.493164 -13.18359,12.304687 0,6.811524 5.93262,12.304688 13.18359,12.304688 z m 62.09552,93.017582 c 19.84863,0 33.25196,-9.00879 37.35352,-23.21778 l -22.77832,-3.73535 c -2.05078,5.49316 -7.25098,8.42285 -14.13574,8.42285 -9.66797,0 -16.18653,-5.85937 -16.62598,-17.72461 h 54.71191 v -6.44531 c 0,-27.026367 -16.47949,-41.748046 -39.47754,-41.748046 -24.60937,0 -40.35644,16.992187 -40.35644,42.260746 0,26.2207 15.60058,42.1875 41.30859,42.1875 z m -16.04004,-51.12305 c 0.95215,-9.00879 6.29883,-14.794923 15.30762,-14.794923 8.93555,0 13.98926,5.493164 15.01465,14.794923 z M 613.23792,150 h 25.56152 v -44.67773 c 0,-9.814458 6.95801,-16.406254 16.40625,-16.406254 3.07617,0 7.69043,0.512695 10.10742,1.318359 V 67.96875 c -2.12402,-0.512695 -4.83398,-0.878906 -7.25098,-0.878906 -9.00879,0 -16.18652,5.200195 -19.11621,15.966797 h -0.8789 V 68.115234 h -24.8291 z M 717.7406,68.115234 H 703.01892 V 48.632812 H 677.4574 v 19.482422 h -10.83985 v 18.969727 h 10.83985 v 40.136719 c 0,15.60059 9.15527,23.95019 26.51367,23.95019 4.83398,0 10.25391,-0.51269 15.9668,-2.12402 l -3.2959,-18.60351 c -1.3916,0.36621 -5.34668,0.8789 -7.10449,0.8789 -4.61426,0 -6.51856,-2.05078 -6.51856,-6.37207 V 87.084961 h 14.72168 z m 44.0047,83.422856 c 19.84863,0 33.25195,-9.00879 37.35352,-23.21778 l -22.77832,-3.73535 c -2.05079,5.49316 -7.25098,8.42285 -14.13575,8.42285 -9.66797,0 -16.18652,-5.85937 -16.62597,-17.72461 h 54.71191 v -6.44531 c 0,-27.026367 -16.47949,-41.748046 -39.47754,-41.748046 -24.60937,0 -40.35644,16.992187 -40.35644,42.260746 0,26.2207 15.60058,42.1875 41.30859,42.1875 z m -16.04004,-51.12305 c 0.95215,-9.00879 6.29883,-14.794923 15.30762,-14.794923 8.93555,0 13.98926,5.493164 15.01465,14.794923 z"
       id="text1"
       style="font-weight:800;font-size:150px;letter-spacing:-5.8;fill:#052e27"
       aria-label="Ongedierte" />
    <path
       d="m 32.378906,278 h 29.097656 c 17.570313,0 25.542969,-8.78516 25.542969,-20.41406 0,-11.62891 -8.175781,-18.23047 -15.742187,-18.63672 v -0.76172 c 7.007812,-1.72656 12.796875,-6.55078 12.796875,-15.99609 0,-11.17188 -7.769532,-19.85547 -23.816407,-19.85547 H 32.378906 Z m 11.578125,-9.95313 v -24.01953 h 16.808594 c 9.039062,0 14.777344,5.83985 14.777344,13 0,6.29688 -4.367188,11.01953 -15.234375,11.01953 z m 0,-32.95703 v -22.85156 h 15.488281 c 8.988282,0 13.253907,4.72266 13.253907,10.91797 0,7.26172 -5.890625,11.93359 -13.558594,11.93359 z m 72.407029,43.6211 c 7.82031,0 13.91406,-3.50391 17.46875,-11.73047 L 133.88359,278 h 10.71484 v -56.77344 h -11.22265 v 33.61719 c 0,8.98828 -5.63672,14.11719 -13.20313,14.11719 -7.41406,0 -11.98437,-4.875 -11.98437,-13.05078 v -34.6836 H 97.016403 v 36.05469 c 0,14.01562 7.769527,21.42969 19.347657,21.42969 z m 61.53985,0.40625 c 10.25781,0 14.37109,-6.39844 16.35156,-10.00391 h 0.91406 V 278 h 10.86719 v -75.66406 h -11.17187 v 28.13281 h -0.60938 c -1.92969,-3.50391 -5.78906,-9.95313 -16.35156,-9.95313 -13.66016,0 -23.76563,10.76563 -23.76563,29.25 0,18.33204 9.95313,29.35157 23.76563,29.35157 z m 2.4375,-9.4961 c -9.69922,0 -14.77735,-8.68359 -14.77735,-19.95703 0,-11.17187 4.92579,-19.65234 14.77735,-19.65234 9.59765,0 14.72656,7.87109 14.72656,19.65234 0,11.83203 -5.23047,19.95703 -14.72656,19.95703 z m 59.05156,9.4961 c 10.25782,0 14.3711,-6.39844 16.35157,-10.00391 h 0.91406 V 278 h 10.86719 v -75.66406 h -11.17188 v 28.13281 h -0.60937 c -1.92969,-3.50391 -5.78907,-9.95313 -16.35157,-9.95313 -13.66015,0 -23.76562,10.76563 -23.76562,29.25 0,18.33204 9.95312,29.35157 23.76562,29.35157 z m 2.4375,-9.4961 c -9.69921,0 -14.77734,-8.68359 -14.77734,-19.95703 0,-11.17187 4.92578,-19.65234 14.77734,-19.65234 9.59766,0 14.72657,7.87109 14.72657,19.65234 0,11.83203 -5.23047,19.95703 -14.72657,19.95703 z m 37.87578,28.79297 c 1.3711,0.60938 4.31641,1.21875 7.82032,1.21875 9.14062,0 14.77734,-4.67187 18.23046,-13.76172 l 24.67969,-64.64453 h -11.98437 l -11.42578,32.2461 c -1.77735,4.92578 -3.04688,9.85156 -4.31641,14.72656 -1.21875,-4.875 -2.38672,-9.75 -4.11328,-14.72656 l -11.22266,-32.2461 h -12.08594 l 21.58204,57.02735 -1.21875,4.16406 c -2.08204,7.3125 -6.14454,8.73437 -11.9336,7.21094 l -1.26953,-0.30469 z"
       id="text2"
       style="font-weight:500;font-size:104px;letter-spacing:-2.8;fill:#66766f"
       aria-label="Buddy" />
  </g>
</svg>
