<?xml version="1.0" encoding="UTF-8" standalone="no"?>
<svg
   width="800"
   height="760"
   viewBox="0 0 800 760"
   role="img"
   aria-labelledby="title desc"
   version="1.1"
   id="svg18"
   xmlns="http://www.w3.org/2000/svg"
   xmlns:svg="http://www.w3.org/2000/svg">
  <title
     id="title">Ongedierte Buddy</title>
  <desc
     id="desc">Ongedierte Buddy logo met een oranje schild en kever op een donkergroene achtergrond.</desc>
  <defs
     id="defs5">
    <linearGradient
       id="brandGradient"
       x1="0"
       y1="0"
       x2="1"
       y2="1">
      <stop
         offset="0"
         stop-color="#0B6A56"
         id="stop1" />
      <stop
         offset="0.52"
         stop-color="#073E32"
         id="stop2" />
      <stop
         offset="1"
         stop-color="#052E27"
         id="stop3" />
    </linearGradient>
    <linearGradient
       id="orangeGradient"
       x1="0"
       y1="0"
       x2="0"
       y2="1">
      <stop
         offset="0"
         stop-color="#FFA21A"
         id="stop4" />
      <stop
         offset="1"
         stop-color="#FF8A00"
         id="stop5" />
    </linearGradient>
  </defs>
  <g
     transform="translate(164 28) scale(.922)"
     id="g17">
    <g
       id="brand-mark">
      <rect
         x="16"
         y="16"
         width="480"
         height="480"
         rx="112"
         fill="url(#brandGradient)"
         id="rect5" />
      <path
         d="M256 100 369 152v102c0 79-45 136-113 174-68-38-113-95-113-174V152L256 100Z"
         fill="none"
         stroke="url(#orangeGradient)"
         stroke-width="22"
         stroke-linejoin="round"
         id="path5" />
      <g
         fill="none"
         stroke="#FF9410"
         stroke-width="15"
         stroke-linecap="round"
         stroke-linejoin="round"
         id="g16">
        <path
           d="M228 205c7-16 20-25 28-25s21 9 28 25"
           id="path6" />
        <path
           d="M229 181c-5-10-13-16-24-17"
           id="path7" />
        <path
           d="M283 181c5-10 13-16 24-17"
           id="path8" />
        <path
           d="M256 207c-31 0-50 23-50 57v32c0 39 21 66 50 66s50-27 50-66v-32c0-34-19-57-50-57Z"
           id="path9" />
        <path
           d="M256 213v143"
           id="path10" />
        <path
           d="M208 246l-22-17"
           id="path11" />
        <path
           d="M207 276l-28 2"
           id="path12" />
        <path
           d="M210 307l-21 23"
           id="path13" />
        <path
           d="M304 246l22-17"
           id="path14" />
        <path
           d="M305 276l28 2"
           id="path15" />
        <path
           d="M302 307l21 23"
           id="path16" />
      </g>
    </g>
  </g>
  <g
     font-family="Inter, 'Inter Display', Arial, sans-serif"
     text-anchor="middle"
     id="g18">
    <path
       d="m 150.46406,616.09375 c 21.82032,0 38.71875,-14.92969 38.71875,-41.78125 0,-26.90625 -16.89843,-41.89063 -38.71875,-41.89063 -21.92968,0 -38.82812,14.98438 -38.82812,41.89063 0,26.74219 16.89844,41.78125 38.82812,41.78125 z m 0,-16.95313 c -11.86718,0 -19.08593,-8.75 -19.08593,-24.82812 0,-16.13281 7.21875,-24.9375 19.08593,-24.9375 11.8125,0 19.03125,8.75 19.03125,24.9375 0,16.07812 -7.21875,24.82812 -19.03125,24.82812 z m 64.23281,-19.03125 c 0,-7.10937 4.21094,-11.32031 10.44532,-11.32031 6.23437,0 9.95312,4.10156 9.95312,10.99219 V 615 h 19.08594 v -38.9375 c 0,-13.83594 -8.36719,-22.96875 -21.16406,-22.96875 -9.89844,0 -15.91407,5.46875 -19.14063,13.94531 l -0.32812,-13.17969 h -17.9375 V 615 h 19.08593 z m 75.82656,59.0625 c 18.26563,0 30.84375,-8.64062 30.84375,-25.53906 V 553.85937 H 302.5 v 10.5 h -0.54688 c -2.29687,-5.52343 -7.82031,-11.26562 -17.5,-11.26562 -12.85156,0 -24.44531,9.95312 -24.44531,31.33594 0,20.61718 11.10156,29.75 24.5,29.75 9.07812,0 14.32812,-4.32032 16.57031,-9.84375 h 1.47656 v 10.82812 c 0,7.27344 -4.375,10.71875 -12.14062,10.71875 -6.83594,0 -10.60938,-2.78906 -11.70313,-6.125 l -16.57031,3.39063 c 2.24219,9.57031 12.41406,16.02343 28.38281,16.02343 z m 0.49219,-38.99218 c -7.32812,0 -11.375,-5.96094 -11.375,-15.80469 0,-9.84375 4.04688,-16.35156 11.375,-16.35156 7.32813,0 11.53906,6.34375 11.53906,16.35156 0,9.89844 -4.21093,15.80469 -11.53906,15.80469 z m 67.02188,15.96875 c 14.82032,0 24.82813,-6.72657 27.89063,-17.33594 l -17.00781,-2.78906 c -1.53125,4.10156 -5.41407,6.28906 -10.55469,6.28906 -7.21875,0 -12.08594,-4.375 -12.41406,-13.23438 h 40.85156 v -4.8125 c 0,-20.17968 -12.30469,-31.17187 -29.47656,-31.17187 -18.375,0 -30.13282,12.6875 -30.13282,31.55469 0,19.57812 11.64844,31.5 30.84375,31.5 z m -11.97656,-38.17188 c 0.71094,-6.72656 4.70313,-11.04687 11.42969,-11.04687 6.67187,0 10.44531,4.10156 11.21094,11.04687 z m 68.49843,37.89844 c 9.29687,0 14.76562,-5.25 17.17187,-10.77344 h 0.65625 V 615 h 18.8125 v -81.48438 h -19.03125 v 30.84375 h -0.4375 c -2.29687,-5.52343 -7.54687,-11.26562 -17.33593,-11.26562 -12.85157,0 -24.33594,9.95312 -24.33594,31.39062 0,20.72657 10.88281,31.39063 24.5,31.39063 z M 421.06718,601 c -7.38281,0 -11.375,-6.5625 -11.375,-16.51563 0,-9.95312 3.99219,-16.46093 11.375,-16.46093 7.27344,0 11.53906,6.34375 11.53906,16.46093 0,10.00782 -4.32031,16.51563 -11.53906,16.51563 z m 38.36563,14 h 19.08594 v -61.14063 h -19.08594 z m 9.51563,-68.30469 c 5.46875,0 9.89844,-4.10156 9.89844,-9.1875 0,-5.08594 -4.42969,-9.1875 -9.89844,-9.1875 -5.41406,0 -9.84375,4.10156 -9.84375,9.1875 0,5.08594 4.42969,9.1875 9.84375,9.1875 z m 46.29532,69.45313 c 14.82031,0 24.82812,-6.72657 27.89062,-17.33594 l -17.00781,-2.78906 c -1.53125,4.10156 -5.41406,6.28906 -10.55469,6.28906 -7.21875,0 -12.08594,-4.375 -12.41406,-13.23438 h 40.85156 v -4.8125 c 0,-20.17968 -12.30469,-31.17187 -29.47656,-31.17187 -18.375,0 -30.13281,12.6875 -30.13281,31.55469 0,19.57812 11.64843,31.5 30.84375,31.5 z m -11.97657,-38.17188 c 0.71094,-6.72656 4.70313,-11.04687 11.42969,-11.04687 6.67188,0 10.44531,4.10156 11.21094,11.04687 z M 549.6172,615 h 19.08594 v -33.35938 c 0,-7.32812 5.19531,-12.25 12.25,-12.25 2.29687,0 5.74219,0.38282 7.54687,0.98438 V 553.75 c -1.58593,-0.38281 -3.60937,-0.65625 -5.41406,-0.65625 -6.72656,0 -12.08594,3.88281 -14.27344,11.92187 h -0.65625 V 553.85937 H 549.6172 Z m 77.95935,-61.14063 H 616.58436 V 539.3125 h -19.08593 v 14.54687 h -8.09375 v 14.16407 h 8.09375 v 29.96875 c 0,11.64843 6.83593,17.88281 19.79687,17.88281 3.60938,0 7.65625,-0.38281 11.92188,-1.58594 l -2.46094,-13.89062 c -1.03906,0.27343 -3.99219,0.65625 -5.30469,0.65625 -3.44531,0 -4.86719,-1.53125 -4.86719,-4.75782 v -28.27343 h 10.99219 z m 32.78754,62.28907 c 14.82031,0 24.82812,-6.72657 27.89062,-17.33594 l -17.00781,-2.78906 c -1.53125,4.10156 -5.41406,6.28906 -10.55469,6.28906 -7.21875,0 -12.08594,-4.375 -12.41406,-13.23438 h 40.85156 v -4.8125 c 0,-20.17968 -12.30469,-31.17187 -29.47656,-31.17187 -18.375,0 -30.13281,12.6875 -30.13281,31.55469 0,19.57812 11.64843,31.5 30.84375,31.5 z m -11.97657,-38.17188 c 0.71094,-6.72656 4.70313,-11.04687 11.42969,-11.04687 6.67188,0 10.44531,4.10156 11.21094,11.04687 z"
       id="text17"
       style="font-weight:800;font-size:112px;letter-spacing:-4.4;fill:#052e27"
       aria-label="Ongedierte" />
    <path
       d="m 284.66338,712 h 22.94238 c 13.85352,0 20.13965,-6.92676 20.13965,-16.0957 0,-9.16895 -6.44629,-14.37403 -12.41211,-14.69434 v -0.60059 c 5.52539,-1.36132 10.08984,-5.16503 10.08984,-12.6123 0,-8.80859 -6.12597,-15.65527 -18.77832,-15.65527 h -21.98144 z m 9.1289,-7.84766 v -18.93847 h 13.25293 c 7.12696,0 11.65137,4.60449 11.65137,10.25 0,4.96484 -3.44336,8.68847 -12.01172,8.68847 z m 0,-25.98535 v -18.01758 h 12.21192 c 7.08691,0 10.45019,3.72364 10.45019,8.6084 0,5.72559 -4.64453,9.40918 -10.69043,9.40918 z m 57.19786,34.39356 c 6.16601,0 10.9707,-2.7627 13.77344,-9.24903 l 0.04,8.68848 h 8.44825 v -44.76367 h -8.84864 v 26.50586 c 0,7.08691 -4.44433,11.13086 -10.41015,11.13086 -5.84571,0 -9.44922,-3.84375 -9.44922,-10.29004 v -27.34668 h -8.80859 v 28.42773 c 0,11.05078 6.12597,16.89649 15.25488,16.89649 z m 48.62949,0.32031 c 8.08789,0 11.33106,-5.04492 12.89258,-7.8877 h 0.7207 V 712 h 8.56836 v -59.6582 h -8.80859 v 22.18164 h -0.48047 c -1.52148,-2.7627 -4.56445,-7.84766 -12.89258,-7.84766 -10.77051,0 -18.73828,8.48828 -18.73828,23.0625 0,14.4541 7.84766,23.14258 18.73828,23.14258 z m 1.92188,-7.48731 c -7.64746,0 -11.65137,-6.84668 -11.65137,-15.73535 0,-8.80859 3.88379,-15.49511 11.65137,-15.49511 7.56738,0 11.61132,6.20605 11.61132,15.49511 0,9.3291 -4.12402,15.73535 -11.61132,15.73535 z m 46.66757,7.48731 c 8.08789,0 11.33105,-5.04492 12.89258,-7.8877 h 0.7207 V 712 h 8.56836 v -59.6582 h -8.80859 v 22.18164 h -0.48047 c -1.52149,-2.7627 -4.56446,-7.84766 -12.89258,-7.84766 -10.77051,0 -18.73828,8.48828 -18.73828,23.0625 0,14.4541 7.84765,23.14258 18.73828,23.14258 z m 1.92187,-7.48731 c -7.64746,0 -11.65136,-6.84668 -11.65136,-15.73535 0,-8.80859 3.88379,-15.49511 11.65136,-15.49511 7.56739,0 11.61133,6.20605 11.61133,15.49511 0,9.3291 -4.12402,15.73535 -11.61133,15.73535 z m 29.9713,22.70215 c 1.08106,0.48047 3.40332,0.96094 6.16602,0.96094 7.20703,0 11.65136,-3.68359 14.37402,-10.85059 l 19.45899,-50.96972 h -9.44922 l -9.00879,25.4248 c -1.40137,3.88379 -2.40235,7.76758 -3.40332,11.61133 -0.96094,-3.84375 -1.88184,-7.6875 -3.24317,-11.61133 l -8.84863,-25.4248 h -9.5293 l 17.01661,44.96387 -0.96094,3.2832 c -1.6416,5.76562 -4.84473,6.88672 -9.40918,5.68555 l -1.00098,-0.24024 z"
       id="text18"
       style="font-weight:500;font-size:82px;letter-spacing:-2.1;fill:#66766f"
       aria-label="Buddy" />
  </g>
</svg>
